<svg width="375" height="201" viewBox="0 0 375 201" fill="none" xmlns="http://www.w3.org/2000/svg">
<path d="M96 0.00165405C107.461 14.8496 125.344 24.9443 144.196 24.9964C152.323 25.0202 160.44 23.4215 168.543 24.0524C179.767 24.9253 190.582 30.2478 198.115 38.6015C198.115 38.6015 203.311 48.3831 216.61 71.153C229.91 93.923 255.558 109.103 281.207 103.41C306.856 97.718 316.289 104.378 316.289 104.378C325.166 109.573 332.561 118.59 332.732 128.865C332.898 138.761 326.558 147.594 324.9 157.347C322.174 173.39 333.312 189.647 348.207 196.241C356.676 199.988 365.99 201.056 375.252 200.226L375.252 0.00167847L96 0.00165405Z" fill="url(#paint0_linear_1970_9042)"/>
<path d="M-1 77.4968V102.527C10.7444 102.052 16.915 96.1927 28.6595 96.5753C38.4181 96.8963 47.5971 100.986 57.1715 102.846C72.3665 105.797 88.6668 102.877 101.804 94.8471C116.199 86.0523 126.169 71.9761 136.961 59.162C147.753 46.3479 160.791 33.89 177.424 30.5964C192.718 27.5665 213.294 31.6969 227.334 25.0304C239.966 17.211 247.695 9.44814 257 0.0324097C257 0.0324097 211.603 0.0324097 195.422 0.0324097H-1V77.4968Z" fill="url(#paint1_linear_1970_9042)"/>
<defs>
<linearGradient id="paint0_linear_1970_9042" x1="218.312" y1="118.547" x2="448.839" y2="-127.469" gradientUnits="userSpaceOnUse">
<stop stop-color="white" stop-opacity="0.08"/>
<stop offset="1" stop-color="white" stop-opacity="0"/>
</linearGradient>
<linearGradient id="paint1_linear_1970_9042" x1="87.4264" y1="25.7956" x2="71.2123" y2="127.192" gradientUnits="userSpaceOnUse">
<stop stop-color="white" stop-opacity="0.04"/>
<stop offset="1" stop-color="white" stop-opacity="0.08"/>
</linearGradient>
</defs>
</svg>
