<svg width="17" height="26" viewBox="0 0 17 26" fill="none" xmlns="http://www.w3.org/2000/svg">
<path d="M8.12802 19.2409C7.77066 19.2407 7.41366 19.2173 7.05933 19.1709C5.20538 18.9287 3.49206 18.0534 2.20937 16.6931C0.926678 15.3328 0.153429 13.5711 0.0205233 11.7061C-0.112382 9.84114 0.403215 7.98755 1.48004 6.45908C2.55687 4.93062 4.12876 3.82119 5.92964 3.31861C6.07781 3.27721 6.23269 3.26539 6.38542 3.28385C6.53815 3.3023 6.68574 3.35067 6.81978 3.42617C6.95382 3.50167 7.07169 3.60282 7.16664 3.72387C7.26158 3.84491 7.33175 3.98347 7.37314 4.13163C7.41454 4.2798 7.42633 4.43468 7.40787 4.58741C7.38942 4.74014 7.34108 4.88774 7.26558 5.02178C7.19008 5.15582 7.0889 5.27369 6.96785 5.36863C6.84681 5.46358 6.70825 5.53374 6.56008 5.57514C5.37085 5.90729 4.31963 6.61241 3.56111 7.58671C2.80258 8.56101 2.37679 9.75304 2.34641 10.9874C2.31604 12.2218 2.68268 13.4333 3.39238 14.4438C4.10208 15.4542 5.11736 16.2101 6.28882 16.6004C7.46029 16.9906 8.72608 16.9945 9.89995 16.6115C11.0738 16.2286 12.0938 15.479 12.8097 14.473C13.5256 13.467 13.8998 12.2577 13.8771 11.0232C13.8544 9.78862 13.436 8.59397 12.6835 7.61499C12.5898 7.49303 12.521 7.35378 12.481 7.20522C12.4411 7.05666 12.4308 6.90169 12.4508 6.74916C12.4707 6.59662 12.5205 6.44954 12.5973 6.31625C12.6741 6.18297 12.7764 6.0661 12.8984 5.97235C13.0204 5.87861 13.1596 5.80979 13.3082 5.76985C13.4567 5.72992 13.6117 5.71965 13.7642 5.7396C13.9168 5.75956 14.0638 5.80934 14.1971 5.88615C14.3304 5.96296 14.4473 6.06528 14.541 6.18725C15.4627 7.38681 16.0306 8.8202 16.1804 10.3255C16.3303 11.8308 16.0563 13.3481 15.3892 14.7058C14.7222 16.0636 13.6887 17.2077 12.4056 18.009C11.1225 18.8103 9.6409 19.2368 8.12815 19.2404L8.12802 19.2409Z" fill="white"/>
<path d="M4.14425 25.3437C3.96112 25.3436 3.78057 25.3006 3.61707 25.2181C3.45357 25.1356 3.31167 25.016 3.20272 24.8688C3.09378 24.7216 3.02082 24.5509 2.9897 24.3705C2.95859 24.19 2.97019 24.0048 3.02354 23.8296L4.88988 17.7255C4.98067 17.4284 5.18578 17.1796 5.46008 17.0337C5.73437 16.8878 6.05539 16.8568 6.35251 16.9476C6.64962 17.0384 6.89849 17.2435 7.04437 17.5178C7.19026 17.7921 7.22122 18.1131 7.13042 18.4103L5.26418 24.5143C5.19084 24.7542 5.04247 24.9643 4.84088 25.1136C4.63928 25.2629 4.39511 25.3435 4.14425 25.3437Z" fill="white"/>
<path d="M7.64469 23.3674C7.52842 23.3672 7.41283 23.3497 7.30174 23.3154L2.00464 21.6959C1.70755 21.605 1.45871 21.3999 1.31287 21.1256C1.16704 20.8512 1.13613 20.5302 1.22699 20.2331C1.31784 19.936 1.52299 19.6872 1.79731 19.5414C2.07163 19.3955 2.39265 19.3647 2.68974 19.4555L7.98687 21.075C8.25568 21.1567 8.48616 21.3323 8.63629 21.5697C8.78642 21.8072 8.84619 22.0907 8.80473 22.3686C8.76326 22.6464 8.62332 22.9001 8.4104 23.0834C8.19748 23.2667 7.92576 23.3674 7.64482 23.367L7.64469 23.3674Z" fill="white"/>
<path d="M6.08293 18.9255C5.96679 18.9252 5.85133 18.9077 5.74036 18.8734C4.06397 18.3615 2.59879 17.3198 1.5646 15.9046C0.530415 14.4894 -0.0169963 12.777 0.00451693 11.0243C0.0260302 9.27163 0.615305 7.57321 1.68392 6.18382C2.75253 4.79442 4.24284 3.78899 5.9313 3.31839C6.07949 3.27709 6.23436 3.26539 6.38708 3.28394C6.5398 3.3025 6.68739 3.35093 6.82138 3.42652C6.95537 3.5021 7.07314 3.60333 7.16801 3.72444C7.26288 3.84555 7.33296 3.98417 7.37426 4.13237C7.41556 4.28056 7.42729 4.43543 7.40874 4.58815C7.39018 4.74086 7.34171 4.88842 7.26613 5.02241C7.19055 5.15641 7.08932 5.27421 6.96821 5.36908C6.8471 5.46395 6.70851 5.53403 6.56032 5.57533C5.36014 5.90993 4.30084 6.62467 3.54129 7.61232C2.78173 8.59997 2.36288 9.80728 2.3476 11.0531C2.33232 12.299 2.72141 13.5162 3.45651 14.5222C4.19161 15.5282 5.2331 16.2687 6.4247 16.6326C6.69358 16.7142 6.92418 16.8898 7.0744 17.1273C7.22462 17.3647 7.28447 17.6483 7.24303 17.9262C7.20159 18.2041 7.0616 18.4579 6.84864 18.6412C6.63568 18.8245 6.36393 18.9252 6.08293 18.9248V18.9255Z" fill="white"/>
<path d="M12.6576 1.17188C13.4132 1.41923 13.8252 2.23235 13.5779 2.98775C13.1691 4.23634 10.1523 5.08477 10.1523 5.08477C10.1523 5.08477 8.20193 2.67633 8.63027 1.36796C8.93818 0.427464 9.6907 0.200549 10.4461 0.447854C10.9011 0.596824 11.23 0.951568 11.367 1.37468C11.7276 1.11448 12.2027 1.02294 12.6576 1.17188Z" fill="white"/>
</svg>
