<svg width="19" height="16" viewBox="0 0 19 16" fill="none" xmlns="http://www.w3.org/2000/svg">
<path fill-rule="evenodd" clip-rule="evenodd" d="M9.51114 2.36497L8.52426 1.41212C6.57422 -0.470706 3.41258 -0.470706 1.46253 1.41212C-0.487511 3.29494 -0.487511 6.3476 1.46253 8.23042L9.48723 15.9785L9.48886 15.9769L9.51277 16L17.5375 8.25193C19.4875 6.36911 19.4875 3.31645 17.5375 1.43363C15.5874 -0.449197 12.4258 -0.449197 10.4757 1.43363L9.51114 2.36497ZM9.48886 13.4975L13.9704 9.17045L15.2876 7.94232L15.2889 7.94358L16.2535 7.01224C17.4945 5.81408 17.4945 3.87148 16.2535 2.67332C15.0126 1.47516 13.0006 1.47516 11.7597 2.67332L9.51211 4.84341L9.50554 4.83706L9.50456 4.83801L7.24031 2.65181C5.99938 1.45365 3.98742 1.45365 2.74648 2.65181C1.50555 3.84997 1.50555 5.79257 2.74648 6.99073L5.052 9.21677L5.05364 9.2152L9.48886 13.4975Z" fill="white"/>
</svg>
