<svg width="72" height="83" viewBox="0 0 72 83" fill="none" xmlns="http://www.w3.org/2000/svg">
<g filter="url(#filter0_d_1440_990)">
<circle cx="36" cy="36" r="26" fill="white"/>
</g>
<mask id="mask0_1440_990" style="mask-type:alpha" maskUnits="userSpaceOnUse" x="10" y="10" width="52" height="52">
<circle cx="36" cy="36" r="26" fill="white"/>
</mask>
<g mask="url(#mask0_1440_990)">
<path d="M55.9991 54.6744V57.8468C55.9991 58.204 55.7098 58.4932 55.3527 58.4932H31.7578C31.4006 58.4932 31.1113 58.204 31.1113 57.8468V54.6744C31.1113 52.6971 32.064 50.9421 33.5355 49.8431V29.04C33.5355 24.5998 37.1353 21 41.5755 21H45.6157C50.0559 21 53.6558 24.5998 53.6558 29.04V49.9054C55.0812 51.0067 55.9991 52.7335 55.9991 54.6744Z" fill="#FFC09C"/>
<path d="M55.9991 54.6744V64.4081C55.9991 64.7652 55.7098 65.0545 55.3527 65.0545H31.7578C31.4006 65.0545 31.1113 64.7652 31.1113 64.4081V54.6744C31.1113 51.3503 33.8057 48.6488 37.1369 48.6488C37.8763 48.6488 38.5599 48.4096 39.1142 48.004C39.1142 48.004 39.1644 49.7765 39.5511 50.82C40.2778 52.781 43.1593 54.777 43.1593 54.777C43.3928 54.9572 43.7176 54.9572 43.9512 54.777C43.9512 54.777 46.827 52.7793 47.555 50.82C47.9427 49.7766 47.9962 48.004 47.9962 48.004C48.5505 48.4096 49.2341 48.6488 49.9735 48.6488C53.293 48.6488 55.9991 51.3399 55.9991 54.6744Z" fill="#7086E3"/>
<path d="M51.5565 37.333V33.3483C51.5565 33.0766 51.3873 32.8336 51.1318 32.7412C49.7257 32.2327 48.5386 31.253 47.7755 29.9442C47.5528 29.5624 47.023 29.5065 46.7338 29.8407C44.0705 32.918 40.3988 34.9523 36.1267 35.4718C35.8017 35.5113 35.5572 35.786 35.5572 36.1133V37.3328C35.5572 40.6676 37.5975 43.5257 40.4984 44.7264L40.4863 44.7565V45.3084C40.4863 47.1585 38.9829 48.6488 37.1386 48.6488C35.7883 48.6488 34.5423 49.0933 33.5371 49.8431C33.5371 49.1981 33.5371 28.4278 33.5371 29.04C33.5371 24.5997 37.1368 21 41.5771 21H45.6174C50.0577 21 53.6574 24.5997 53.6574 29.04V49.9054C52.6393 49.1175 51.3618 48.6488 49.9752 48.6488C48.1328 48.6488 46.6274 47.1604 46.6274 45.3084V44.7565L46.6153 44.7266C49.5162 43.5258 51.5565 40.6678 51.5565 37.333Z" fill="#163560"/>
<path d="M51.1293 32.7412C51.3848 32.8336 51.554 33.0766 51.554 33.3483V37.333C51.554 40.6678 49.5137 43.5259 46.6128 44.7266C41.3672 46.904 35.5547 43.0358 35.5547 37.333V36.1135C35.5547 35.786 35.7992 35.5115 36.1242 35.472C40.3938 34.9527 44.0663 32.9199 46.7312 29.8409C47.0205 29.5066 47.5503 29.5625 47.773 29.9444C48.5354 31.252 49.722 32.2323 51.1293 32.7412Z" fill="#FFC09C"/>
<path d="M46.7144 46.0834C44.7236 46.9167 42.5358 46.9814 40.3906 46.0834C40.5002 45.6288 40.4819 45.3343 40.4819 44.7566L40.4941 44.7267C42.44 45.5344 44.6612 45.536 46.611 44.7267L46.6231 44.7566C46.6231 45.3346 46.6048 45.6289 46.7144 46.0834Z" fill="#FFB084"/>
<path d="M48.6454 21.5896C49.6302 21.9903 49.3039 23.4524 48.2409 23.4266C48.0779 23.4226 43.9202 23.4241 44.0013 23.4241C39.5609 23.4241 35.9612 27.0238 35.9612 31.4642V35.0516C35.9612 35.6408 35.5572 35.6568 35.5572 36.1137C35.5572 37.4056 35.4969 38.3668 35.9153 39.7074C35.9449 39.8021 35.9612 39.9006 35.9612 39.9998V48.0198C35.9612 48.4339 35.6985 48.8072 35.304 48.9334C34.6616 49.1387 34.0662 49.4486 33.5371 49.8432V29.04C33.5371 24.5997 37.1368 21 41.5771 21H45.6174C46.6887 21 47.7109 21.2094 48.6454 21.5896Z" fill="#163560"/>
<path d="M41.7759 42.4448C43.1243 43.2841 42.0593 45.3539 40.5852 44.7629C37.5929 43.5632 35.5547 40.659 35.5547 37.3329V36.1135C35.5547 35.7867 35.7982 35.5116 36.1227 35.4722C36.4289 35.435 36.7454 35.3882 37.0703 35.3306C37.5373 35.2476 37.9766 35.5813 38.0175 36.0538C38.2732 39.0103 39.7706 41.1968 41.7759 42.4448Z" fill="#FFC09C"/>
<path d="M38.39 54.9384V58.0473C38.39 58.3973 38.1066 58.6808 37.7565 58.6808H14.6335C14.2835 58.6808 14 58.3973 14 58.0473V54.9384C14 51.6774 16.6441 49.0333 19.9051 49.0333C21.721 49.0333 23.1859 47.5663 23.1859 45.7596V45.2188L23.1977 45.1895C20.518 44.0801 18.6135 41.5437 18.3799 38.5646C17.5096 38.6485 16.3757 37.8384 16.3757 36.5872V29.8166C16.3757 25.4652 19.9035 21.9374 24.2549 21.9374H28.2143C32.5602 21.9374 36.092 25.4573 36.0936 29.8032C36.0944 31.9056 35.9019 33.5329 37.3226 35.5665C37.614 35.9838 37.3258 36.5595 36.8166 36.5674C35.8893 36.5809 34.9588 36.5263 34.0347 36.4019V37.9437C34.0347 41.2126 32.0344 44.0128 29.1923 45.1895L29.2042 45.2188V45.7596C29.2042 47.5707 30.6739 49.0333 32.485 49.0333C35.7482 49.0333 38.39 51.6803 38.39 54.9384Z" fill="#FFAF83"/>
<path d="M38.39 54.9383V62.5464C38.39 62.8963 38.1064 63.1799 37.7565 63.1799H14.6335C14.2837 63.1799 14 62.8963 14 62.5464V54.9383C14 51.6773 16.6441 49.0332 19.9051 49.0332C20.1031 49.0332 20.2979 49.0158 20.4863 48.9825L20.4935 49.0197C25.1311 53.1811 31.6004 54.0242 37.18 51.3574C37.9395 52.3512 38.39 53.5921 38.39 54.9383Z" fill="#9072E5"/>
<path d="M34.0328 37.9437C34.0328 42.2749 30.521 45.7833 26.1932 45.7833C21.8543 45.7833 18.3535 42.2635 18.3535 37.9437V34.0383C18.3535 33.7718 18.5205 33.534 18.7712 33.4434C20.1445 32.947 21.3202 31.9807 22.0689 30.6866C22.2835 30.3157 22.8031 30.2693 23.087 30.5904C25.848 33.7122 29.6123 35.8106 34.0328 36.4019V37.9437Z" fill="#FFAF83"/>
<path d="M37.3216 35.5662C37.6133 35.9838 37.3255 36.5598 36.8161 36.5671C31.6393 36.6406 26.6689 34.6391 23.0884 30.5906C22.8044 30.2695 22.2846 30.3158 22.0699 30.6868C21.3211 31.9811 20.1453 32.9472 18.7723 33.4435C18.5216 33.5341 18.3546 33.7725 18.3546 34.039C18.3542 38.3249 18.3473 38.1716 18.3792 38.5646C17.5091 38.6488 16.375 37.8383 16.375 36.5872C16.375 36.3627 16.375 29.6481 16.375 29.8166C16.375 25.4651 19.9027 21.9374 24.2543 21.9374H28.2137C32.5599 21.9374 36.0913 25.457 36.0929 29.8032C36.0937 31.9059 35.901 33.5326 37.3216 35.5662Z" fill="#182038"/>
<path d="M29.291 46.519C27.3401 47.3357 25.196 47.399 23.0938 46.519C23.2011 46.0735 23.1832 45.7849 23.1832 45.2187L23.1951 45.1894C25.1021 45.981 27.2789 45.9826 29.1897 45.1894L29.2016 45.2187C29.2016 45.7852 29.1837 46.0736 29.291 46.519Z" fill="#FFA06C"/>
<path d="M26.5066 43.9264C27.5571 44.2172 27.3466 45.7746 26.2567 45.7833C21.8928 45.818 18.3535 42.2891 18.3535 37.9439V34.0383C18.3535 33.7723 18.5206 33.5339 18.7708 33.4436C18.9738 33.3701 19.1724 33.2865 19.366 33.1931C19.9962 32.8889 20.7276 33.3426 20.7281 34.0423C20.7286 34.6052 20.7292 35.3561 20.7292 36.3601C20.7292 40.1056 23.282 43.0337 26.5066 43.9264Z" fill="#FFAF83"/>
</g>
<circle cx="36" cy="36" r="28.5" stroke="#FFB1C7"/>
<defs>
<filter id="filter0_d_1440_990" x="0" y="0" width="72" height="72" filterUnits="userSpaceOnUse" color-interpolation-filters="sRGB">
<feFlood flood-opacity="0" result="BackgroundImageFix"/>
<feColorMatrix in="SourceAlpha" type="matrix" values="0 0 0 0 0 0 0 0 0 0 0 0 0 0 0 0 0 0 127 0" result="hardAlpha"/>
<feOffset/>
<feGaussianBlur stdDeviation="5"/>
<feColorMatrix type="matrix" values="0 0 0 0 1 0 0 0 0 0.282353 0 0 0 0 0.407843 0 0 0 0.25 0"/>
<feBlend mode="normal" in2="BackgroundImageFix" result="effect1_dropShadow_1440_990"/>
<feBlend mode="normal" in="SourceGraphic" in2="effect1_dropShadow_1440_990" result="shape"/>
</filter>
</defs>
</svg>
