<svg width="73" height="83" viewBox="0 0 73 83" fill="none" xmlns="http://www.w3.org/2000/svg">
<g filter="url(#filter0_d_0_1)">
<circle cx="36" cy="36" r="26" fill="white"/>
</g>
<mask id="mask0_0_1" style="mask-type:alpha" maskUnits="userSpaceOnUse" x="10" y="10" width="52" height="52">
<circle cx="36" cy="36" r="26" fill="white"/>
</mask>
<g mask="url(#mask0_0_1)">
<path d="M25.8507 50.3534L51.1971 55.9536C51.1971 55.9536 55.2392 56.5387 54.987 59.7156C54.7348 62.8926 53.8919 64.4805 49.2604 64.8982C44.6289 65.3159 18.9453 64.3131 18.9453 64.3131L25.8507 50.3534Z" fill="#FFB1C7"/>
<path d="M47.9174 38.978C47.9174 38.978 53.6902 34.9246 51.5007 28.3513C49.3112 21.778 43.7752 21.253 39.568 23.1374C37.6789 24.1459 35.848 26.5111 35.848 26.5111L33.168 30.6597L47.5087 39.0871L47.9174 38.978Z" fill="#163560"/>
<path d="M49.625 44.7616L47.4539 38.9214C47.4539 38.9214 47.2362 39.0073 46.6147 38.4318C45.9919 37.8548 44.6462 36.3846 44.6462 36.3846C44.6462 36.3846 44.5298 36.1254 44.6462 35.9372C44.7626 35.7503 45.8262 34.1846 45.0227 32.7143C44.2191 31.244 42.1999 31.2004 41.9179 32.9312C41.462 32.4333 35.7303 26.6941 35.7303 26.6941L35.0938 27.4156L36.2806 42.4416C36.2806 42.4416 37.0048 43.2491 39.0021 42.7881C40.9993 42.3271 41.6646 42.1252 41.6646 42.1252L41.896 44.2883L49.74 45.0958L49.625 44.7616Z" fill="#FFC09C"/>
<path d="M33.9707 25.9835C33.9707 25.9835 38.7941 31.0872 32.6786 38.8705C26.5632 46.6537 21.6844 42.653 21.6844 42.653C21.6844 42.653 18.3279 39.718 17.9193 35.9569C17.5108 32.1958 18.1526 26.4389 24.5731 24.3313C30.9937 22.2237 33.9707 25.9835 33.9707 25.9835Z" fill="#182038"/>
<path d="M33.339 25.943C33.339 25.943 35.5965 26.5495 36.3684 29.2941C37.1403 32.0387 37.1403 32.327 37.1403 32.327L39.2275 35.8229L37.9987 36.5456C37.9987 36.5456 39.0856 41.0525 36.6834 42.1496C34.2826 43.2479 28.5657 43.5936 28.5657 43.5936L27.8222 37.5265C27.8222 37.5265 26.0784 35.9377 26.5353 34.4349C26.9922 32.9322 28.4792 32.2108 29.4796 33.771C30.1649 31.5469 33.5943 30.074 33.339 25.943Z" fill="#CE875F"/>
<path d="M48.2183 26.2562C49.6645 27.0182 51.4813 26.4127 52.2763 24.9037C53.0713 23.3948 52.5433 21.5539 51.0971 20.792C49.6509 20.03 47.8341 20.6356 47.0391 22.1445C46.2441 23.6534 46.772 25.4943 48.2183 26.2562Z" fill="#163560"/>
<path d="M28.7112 52.3835C28.7112 52.3835 27.2473 56.7061 24.8794 59.0739C19.66 64.2934 16 63.2177 16 63.2177C16 63.2177 17.2912 48.496 20.0702 47.4082C22.1114 46.7127 28.7112 52.3835 28.7112 52.3835Z" fill="#182038"/>
<path d="M24.8173 40.6432L48.6556 44.311C48.6556 44.311 51.9141 44.7626 53.0107 48.5474C54.1074 52.3323 54.6257 57.8643 54.6257 57.8643L47.9927 56.3498C47.9927 56.3498 35.4182 55.4177 28.496 52.4493C21.5738 49.4809 17.9402 47.267 17.8242 44.0067C17.7083 40.7464 22.755 40.4243 24.8173 40.6432Z" fill="#FF58A4"/>
</g>
<circle cx="36" cy="36" r="28.5" stroke="#FFB1C7"/>
<defs>
<filter id="filter0_d_0_1" x="0" y="0" width="72" height="72" filterUnits="userSpaceOnUse" color-interpolation-filters="sRGB">
<feFlood flood-opacity="0" result="BackgroundImageFix"/>
<feColorMatrix in="SourceAlpha" type="matrix" values="0 0 0 0 0 0 0 0 0 0 0 0 0 0 0 0 0 0 127 0" result="hardAlpha"/>
<feOffset/>
<feGaussianBlur stdDeviation="5"/>
<feColorMatrix type="matrix" values="0 0 0 0 1 0 0 0 0 0.282353 0 0 0 0 0.407843 0 0 0 0.25 0"/>
<feBlend mode="normal" in2="BackgroundImageFix" result="effect1_dropShadow_0_1"/>
<feBlend mode="normal" in="SourceGraphic" in2="effect1_dropShadow_0_1" result="shape"/>
</filter>
</defs>
</svg>
