<svg width="52" height="52" viewBox="0 0 52 52" fill="none" xmlns="http://www.w3.org/2000/svg">
<g filter="url(#filter0_d_1445_47)">
<circle cx="26" cy="26" r="16" fill="#FF6B86"/>
</g>
<g clip-path="url(#clip0_1445_47)">
<path d="M25 29H27V31H25V29ZM25 21H27V27H25V21ZM25.99 16C20.47 16 16 20.48 16 26C16 31.52 20.47 36 25.99 36C31.52 36 36 31.52 36 26C36 20.48 31.52 16 25.99 16ZM26 34C21.58 34 18 30.42 18 26C18 21.58 21.58 18 26 18C30.42 18 34 21.58 34 26C34 30.42 30.42 34 26 34Z" fill="white"/>
</g>
<defs>
<filter id="filter0_d_1445_47" x="0" y="0" width="52" height="52" filterUnits="userSpaceOnUse" color-interpolation-filters="sRGB">
<feFlood flood-opacity="0" result="BackgroundImageFix"/>
<feColorMatrix in="SourceAlpha" type="matrix" values="0 0 0 0 0 0 0 0 0 0 0 0 0 0 0 0 0 0 127 0" result="hardAlpha"/>
<feOffset/>
<feGaussianBlur stdDeviation="5"/>
<feColorMatrix type="matrix" values="0 0 0 0 0 0 0 0 0 0 0 0 0 0 0 0 0 0 0.25 0"/>
<feBlend mode="normal" in2="BackgroundImageFix" result="effect1_dropShadow_1445_47"/>
<feBlend mode="normal" in="SourceGraphic" in2="effect1_dropShadow_1445_47" result="shape"/>
</filter>
<clipPath id="clip0_1445_47">
<rect width="24" height="24" fill="white" transform="translate(14 14)"/>
</clipPath>
</defs>
</svg>
