<svg width="164" height="112" viewBox="0 0 164 112" fill="none" xmlns="http://www.w3.org/2000/svg">
<path d="M32.4242 57.2413C30.5592 57.4032 28.8812 57.314 27.3902 56.9737C25.8991 56.6333 24.4707 55.9614 23.1047 54.9577C22.3514 54.3968 21.9421 53.7407 21.8769 52.9896C21.8252 52.3938 22.0004 51.8566 22.4025 51.3781C22.8024 50.8736 23.3132 50.5944 23.9348 50.5404C24.427 50.4977 24.8808 50.6149 25.2963 50.892C26.4066 51.6568 27.4708 52.1908 28.4888 52.4939C29.5069 52.797 30.6893 52.89 32.0363 52.7731C33.4868 52.6472 34.702 52.2155 35.6819 51.478C36.6877 50.7382 37.149 49.8891 37.0658 48.9307C36.9646 47.7651 36.3679 46.9035 35.2756 46.3459C34.181 45.7624 32.4923 45.4 30.2096 45.2589C24.4649 44.9225 21.3993 42.5267 21.0125 38.0714C20.8708 36.4396 21.1757 34.9908 21.927 33.725C22.6761 32.4334 23.7619 31.4127 25.1844 30.6629C26.6046 29.8871 28.2213 29.4206 30.0345 29.2631C31.6664 29.1215 33.216 29.2349 34.6834 29.6034C36.1766 29.9696 37.4373 30.5126 38.4654 31.2324C39.2683 31.7629 39.7035 32.4167 39.7709 33.1938C39.8227 33.7896 39.6486 34.3397 39.2487 34.8442C38.8466 35.3227 38.3477 35.5879 37.7519 35.6396C37.3634 35.6733 37.0036 35.5871 36.6725 35.381C35.9518 34.8955 34.9636 34.4854 33.708 34.1508C32.476 33.788 31.3808 33.6481 30.4224 33.7313C28.7905 33.873 27.5483 34.294 26.6957 34.9944C25.8667 35.6666 25.4949 36.4948 25.5804 37.4791C25.6771 38.593 26.2035 39.3954 27.1595 39.8866C28.1415 40.3755 29.6325 40.7158 31.6326 40.9076C33.8939 41.1027 35.7121 41.4538 37.0871 41.9608C38.4858 42.4396 39.5679 43.1808 40.3336 44.1843C41.097 45.162 41.554 46.5185 41.7047 48.254C41.8463 49.8859 41.5049 51.3639 40.6803 52.6882C39.8794 53.9843 38.7441 55.0355 37.2743 55.8416C35.8022 56.6218 34.1855 57.0884 32.4242 57.2413ZM63.7776 26.6862C64.4511 26.6278 65.0141 26.8007 65.4668 27.2051C65.9195 27.6095 66.1762 28.1613 66.2369 28.8607L67.4579 42.9258C67.6445 45.0757 67.3565 47.0189 66.5938 48.7554C65.8311 50.4918 64.6743 51.8971 63.1234 52.9713C61.5725 54.0455 59.748 54.6736 57.6499 54.8557C55.5518 55.0379 53.6333 54.7346 51.8946 53.9461C50.1818 53.1552 48.8002 51.9703 47.7497 50.3912C46.6992 48.8122 46.0806 46.9477 45.894 44.7978L44.673 30.7327C44.6145 30.0592 44.7993 29.482 45.2273 29.0012C45.6531 28.4945 46.2286 28.2097 46.9539 28.1467C47.5755 28.0927 48.1397 28.2786 48.6464 28.7044C49.1509 29.1043 49.4324 29.6409 49.4908 30.3144L50.7118 44.3795C50.8198 45.6228 51.1884 46.713 51.8178 47.6501C52.445 48.5613 53.2344 49.2366 54.1859 49.6759C55.1634 50.113 56.1831 50.2855 57.2451 50.1933C58.3589 50.0966 59.3725 49.7476 60.286 49.1464C61.2253 48.5429 61.9383 47.7372 62.4249 46.7293C62.9353 45.6933 63.1365 44.5536 63.0285 43.3103L61.8075 29.2452C61.7468 28.5458 61.8916 27.9591 62.2419 27.485C62.5922 27.011 63.1041 26.7447 63.7776 26.6862ZM83.0944 25.0485C84.4154 24.9338 85.7065 25.2262 86.9678 25.9258C88.2267 26.5994 89.2773 27.5782 90.1195 28.8622C90.9595 30.1203 91.448 31.5393 91.5852 33.1194C91.7201 34.6736 91.4834 36.1556 90.8751 37.5655C90.2667 38.9754 89.4016 40.1335 88.2798 41.0399C87.1558 41.9205 85.9332 42.4181 84.6122 42.5327L77.8516 43.1196L78.4891 50.463C78.5498 51.1624 78.3921 51.7502 78.0158 52.2265C77.6396 52.7029 77.1148 52.9703 76.4413 53.0287C75.7938 53.0849 75.2436 52.9109 74.791 52.5065C74.3361 52.0762 74.0794 51.5244 74.0209 50.8509L72.0714 28.3933C72.0129 27.7199 72.1847 27.1439 72.5868 26.6653C73.0126 26.1586 73.5622 25.876 74.2357 25.8175L83.0944 25.0485ZM84.2277 38.1034C84.7198 38.0607 85.181 37.8118 85.6113 37.3569C86.0675 36.8998 86.4099 36.335 86.6386 35.6627C86.891 34.9623 86.9857 34.2494 86.9227 33.5241C86.8598 32.7989 86.6448 32.126 86.2777 31.5054C85.9343 30.8566 85.4997 30.3594 84.9738 30.0135C84.4716 29.6396 83.9744 29.474 83.4823 29.5167L76.7217 30.1036L77.4671 38.6903L84.2277 38.1034ZM112.636 45.3848C113.309 45.3263 113.886 45.5111 114.367 45.9391C114.872 46.339 115.15 46.8368 115.202 47.4326C115.258 48.0801 115.071 48.6314 114.641 49.0863C114.236 49.539 113.697 49.7945 113.024 49.853L100.008 50.9829C99.3342 51.0414 98.7453 50.8707 98.2408 50.4708C97.76 50.0428 97.4903 49.492 97.4319 48.8186L95.4823 26.361C95.4239 25.6876 95.5957 25.1115 95.9978 24.633C96.4236 24.1263 96.9732 23.8437 97.6467 23.7852L110.663 22.6553C111.336 22.5968 111.912 22.7686 112.391 23.1708C112.893 23.5447 113.173 24.0684 113.232 24.7419C113.288 25.3895 113.114 25.9396 112.71 26.3923C112.303 26.819 111.75 27.0628 111.051 27.1235L100.521 28.0375L101.095 34.6427L109.876 33.8804C110.549 33.8219 111.125 33.9938 111.604 34.3959C112.106 34.7699 112.386 35.2936 112.445 35.967C112.501 36.6146 112.327 37.1647 111.922 37.6174C111.516 38.0442 110.963 38.2879 110.263 38.3486L101.482 39.1109L102.106 46.2989L112.636 45.3848ZM140.873 43.5991C141.227 43.777 141.51 44.0265 141.721 44.3475C141.957 44.6663 142.091 45.007 142.122 45.3696C142.163 45.8358 142.045 46.2767 141.767 46.6923C141.419 47.1922 140.844 47.4771 140.041 47.5468C139.419 47.6007 138.837 47.5078 138.294 47.2678C136.337 46.3677 135.217 44.2858 134.933 41.022C134.853 40.0896 134.478 39.3783 133.809 38.8883C133.166 38.3961 132.274 38.1994 131.135 38.2984L123.869 38.9291L124.523 46.4668C124.584 47.1661 124.439 47.7529 124.089 48.2269C123.765 48.6988 123.291 48.9616 122.67 49.0156C121.919 49.0808 121.239 48.918 120.631 48.5271C120.047 48.1081 119.725 47.5618 119.667 46.8884L117.717 24.4308C117.659 23.7574 117.83 23.1814 118.233 22.7028C118.658 22.1961 119.208 21.9135 119.881 21.855L131.071 20.8836C132.418 20.7667 133.719 21.0191 134.973 21.641C136.228 22.2628 137.26 23.178 138.069 24.3865C138.905 25.5928 139.391 26.9859 139.528 28.566C139.641 29.8611 139.401 31.1607 138.81 32.4647C138.216 33.7429 137.394 34.7929 136.343 35.6149C138.074 36.6129 139.1 38.0636 139.422 39.9669C139.536 40.3746 139.609 40.7727 139.643 41.1613C139.816 41.9552 139.971 42.5291 140.106 42.8827C140.239 43.2104 140.494 43.4492 140.873 43.5991ZM132.031 34.1885C132.497 34.148 132.931 33.8885 133.333 33.4099C133.735 32.9314 134.047 32.3171 134.269 31.5671C134.489 30.7912 134.562 29.9758 134.488 29.121C134.425 28.3957 134.225 27.7476 133.888 27.1766C133.549 26.5796 133.144 26.119 132.672 25.7946C132.2 25.4702 131.731 25.3282 131.265 25.3687L122.756 26.1073L123.522 34.9272L132.031 34.1885ZM62.4483 82.7874C63.1218 82.7289 63.6978 82.9008 64.1764 83.3029C64.6786 83.6768 64.959 84.2006 65.0174 84.874C65.0736 85.5216 64.8877 86.0858 64.4597 86.5666C64.0554 87.0193 63.5164 87.2748 62.843 87.3333L50.2155 88.4295C49.542 88.488 48.953 88.3173 48.4486 87.9174C47.9677 87.4894 47.6981 86.9386 47.6396 86.2652L45.6901 63.8076C45.6316 63.1341 45.8164 62.557 46.2444 62.0762C46.6702 61.5695 47.2457 61.2846 47.971 61.2217C48.6186 61.1654 49.1957 61.3502 49.7024 61.776C50.2069 62.1759 50.4884 62.7125 50.5468 63.386L52.3075 83.6677L62.4483 82.7874ZM74.3137 83.9496C74.3722 84.623 74.1756 85.2143 73.7239 85.7232C73.27 86.2063 72.7192 86.4759 72.0717 86.5322C71.3723 86.5929 70.7704 86.4233 70.2659 86.0234C69.7851 85.5954 69.5155 85.0447 69.457 84.3712L67.5075 61.9136C67.449 61.2402 67.6338 60.663 68.0618 60.1822C68.4876 59.6755 69.0631 59.3907 69.7884 59.3277C70.4359 59.2715 71.0131 59.4563 71.5198 59.882C72.0243 60.2819 72.3057 60.8186 72.3642 61.492L74.3137 83.9496ZM100.838 79.9637C101.011 80.1575 101.163 80.4052 101.294 80.7071C101.422 80.983 101.497 81.2505 101.52 81.5095C101.581 82.2089 101.359 82.8153 100.856 83.3288C100.378 83.84 99.7897 84.126 99.0903 84.1867C98.7536 84.2159 98.423 84.1663 98.0987 84.0379C97.7744 83.9094 97.4963 83.7117 97.2643 83.4448L87.8684 73.0645L84.4842 76.9206L85.0137 83.0207C85.0744 83.7201 84.8908 84.3102 84.4628 84.791C84.0606 85.2696 83.4969 85.5403 82.7717 85.6033C82.0723 85.664 81.4704 85.4944 80.9659 85.0946C80.4851 84.6665 80.2154 84.1158 80.157 83.4423L78.2074 60.9848C78.149 60.3113 78.3338 59.7342 78.7618 59.2534C79.1876 58.7466 79.7631 58.4618 80.4883 58.3988C81.1877 58.3381 81.7767 58.5088 82.2553 58.9109C82.7338 59.3131 83.0035 59.8638 83.0642 60.5632L83.9816 71.1314L95.3524 57.8131C95.8964 57.1656 96.5052 56.8127 97.1786 56.7542C97.7744 56.7025 98.3009 56.9047 98.758 57.3609C99.2152 57.8171 99.4674 58.3171 99.5146 58.8611C99.5618 59.405 99.3726 59.9304 98.9468 60.4371L91.1782 69.254L100.838 79.9637ZM120.821 77.7984C121.494 77.7399 122.072 77.9247 122.552 78.3527C123.057 78.7526 123.335 79.2504 123.387 79.8461C123.443 80.4937 123.256 81.0449 122.826 81.4999C122.421 81.9525 121.882 82.2081 121.209 82.2666L108.193 83.3965C107.519 83.4549 106.93 83.2842 106.426 82.8844C105.945 82.4564 105.675 81.9056 105.617 81.2321L103.667 58.7746C103.609 58.1011 103.781 57.5251 104.183 57.0465C104.609 56.5398 105.158 56.2572 105.832 56.1988L118.848 55.0688C119.521 55.0104 120.097 55.1822 120.576 55.5843C121.078 55.9583 121.358 56.482 121.417 57.1555C121.473 57.803 121.299 58.3532 120.895 58.8058C120.488 59.2326 119.935 59.4763 119.236 59.537L108.706 60.4511L109.28 67.0563L118.061 66.294C118.734 66.2355 119.31 66.4073 119.789 66.8095C120.291 67.1834 120.571 67.7071 120.63 68.3806C120.686 69.0282 120.512 69.5783 120.107 70.031C119.701 70.4577 119.148 70.7015 118.448 70.7622L109.668 71.5245L110.291 78.7124L120.821 77.7984Z" fill="white"/>
<rect x="2.16548" y="15.3112" width="152" height="94" rx="12" transform="rotate(-4.96141 2.16548 15.3112)" stroke="white" stroke-width="4"/>
</svg>
