<svg width="56" height="56" viewBox="0 0 56 56" fill="none" xmlns="http://www.w3.org/2000/svg">
<path d="M48.3626 9.0621L49.2774 7.87336L48.0887 6.95854L43.235 3.22329L42.0462 2.30847L41.1314 3.49721L27.2377 21.551L9.18389 7.65732L7.99515 6.7425L7.08033 7.93124L3.34508 12.7849L2.43026 13.9737L3.619 14.8885L21.6728 28.7822L7.77911 46.836L6.86429 48.0247L8.05303 48.9396L12.9067 52.6748L14.0954 53.5896L15.0103 52.4009L28.904 34.3471L46.9578 48.2408L48.1465 49.1556L49.0613 47.9669L52.7966 43.1132L53.7114 41.9245L52.5227 41.0096L34.4689 27.1159L48.3626 9.0621Z" fill="white" stroke="white" stroke-width="3"/>
</svg>
